<svg width="24" height="24" xmlns="http://www.w3.org/2000/svg" fill-rule="evenodd" clip-rule="evenodd"><path d="M8.742 2.397c.82-.861 1.977-1.397 3.258-1.397 1.282 0 2.439.536 3.258 1.397.699-.257 1.454-.397 2.242-.397 3.587 0 6.5 2.912 6.5 6.5 0 2.299-1.196 4.321-3 5.476v9.024h-18v-9.024c-1.803-1.155-3-3.177-3-5.476 0-3.588 2.913-6.5 6.5-6.5.788 0 1.543.14 2.242.397zm6.258 19.603h5v-7.505c-.715.307-1.38.47-1.953.525-.274.026-.518-.176-.545-.45-.025-.276.176-.52.451-.545 1.388-.132 5.047-1.399 5.047-5.525 0-3.036-2.465-5.5-5.5-5.5-1.099 0-1.771.29-2.512.563-1.521-1.596-2.402-1.563-2.988-1.563-.595 0-1.474-.026-2.987 1.563-.787-.291-1.422-.563-2.513-.563-3.035 0-5.5 2.464-5.5 5.5 0 4.13 3.663 5.394 5.048 5.525.274.025.476.269.45.545-.026.274-.27.476-.545.45-.573-.055-1.238-.218-1.953-.525v7.505h5v-3.5c0-.311.26-.5.5-.5.239 0 .5.189.5.5v3.5h4v-3.5c0-.311.26-.5.5-.5s.5.189.5.5v3.5z"/></svg>