<?xml version="1.0" standalone="no"?>
<!DOCTYPE svg PUBLIC "-//W3C//DTD SVG 20010904//EN"
 "http://www.w3.org/TR/2001/REC-SVG-20010904/DTD/svg10.dtd">
<svg version="1.0" xmlns="http://www.w3.org/2000/svg"
 width="500.000000pt" height="500.000000pt" viewBox="0 0 500.000000 500.000000"
 preserveAspectRatio="xMidYMid meet">

<g transform="translate(0.000000,500.000000) scale(0.100000,-0.100000)"
fill="#000000" stroke="none">
<path d="M3522 2684 c4 -21 22 -23 26 -1 2 10 -3 17 -13 17 -10 0 -15 -6 -13
-16z"/>
<path d="M3396 2678 c-2 -7 -7 -32 -10 -56 -13 -87 -95 -202 -146 -202 -31 0
-32 16 -5 69 25 51 32 81 17 81 -13 0 -39 -32 -47 -58 -15 -51 -110 -132 -135
-117 -17 11 -11 35 27 107 25 47 33 72 26 79 -24 24 -109 -140 -101 -195 5
-32 50 -33 102 -2 38 22 45 24 56 11 55 -66 218 102 237 244 5 37 -12 68 -21
39z"/>
<path d="M2565 2609 c-32 -39 -24 -52 10 -15 l26 28 35 -21 c39 -23 65 -17 84
19 13 23 -2 27 -20 5 -16 -19 -39 -19 -64 0 -29 22 -41 19 -71 -16z"/>
<path d="M3457 2575 c-62 -107 -60 -155 6 -155 24 0 42 12 84 55 30 31 51 60
47 67 -4 7 -27 -11 -60 -47 -83 -89 -109 -61 -50 55 39 76 43 90 23 90 -7 0
-30 -29 -50 -65z"/>
<path d="M2523 2480 c-43 -79 -101 -156 -132 -178 -66 -43 -78 -5 -26 82 19
32 35 62 35 67 0 5 -30 9 -68 9 -84 0 -123 -24 -181 -109 -99 -146 -203 -161
-116 -17 19 32 33 61 30 64 -3 3 -32 7 -66 9 -52 4 -66 1 -100 -21 -49 -33
-96 -97 -105 -143 -14 -72 52 -93 118 -38 29 25 30 25 54 6 31 -24 63 -17 112
25 l40 34 14 -22 c20 -30 70 -27 110 7 28 23 32 24 48 10 23 -21 67 -19 101 6
16 11 29 16 29 10 0 -6 7 -11 15 -11 9 0 30 31 52 76 40 82 90 134 128 134 30
0 32 -18 9 -62 -39 -75 -35 -118 11 -118 26 0 74 37 106 81 37 52 10 46 -41
-9 -26 -28 -53 -52 -59 -52 -19 0 -12 38 15 92 33 65 23 98 -28 98 -18 0 -40
-4 -48 -10 -9 -5 -19 -5 -27 2 -10 8 -17 2 -30 -22z m-197 -54 c15 -40 -82
-156 -131 -156 -55 0 -39 65 31 130 45 41 90 53 100 26z m-338 -67 c6 -51
-101 -159 -142 -143 -36 14 -10 80 54 138 49 44 83 46 88 5z"/>
<path d="M1766 2424 c-3 -9 -6 -30 -6 -47 0 -48 -42 -127 -88 -169 -72 -65
-100 -43 -57 42 14 29 24 59 21 67 -9 23 -29 2 -60 -61 -38 -79 -136 -140
-136 -85 0 11 16 52 36 90 36 70 38 93 6 73 -25 -16 -74 -120 -80 -169 -4 -36
-1 -44 15 -49 23 -7 70 8 96 32 15 13 22 14 37 4 49 -30 122 2 174 76 35 51
75 149 76 185 0 30 -24 38 -34 11z"/>
</g>
</svg>
